<svg width="1920" height="200" viewBox="0 0 1920 200" fill="none" xmlns="http://www.w3.org/2000/svg">
<rect width="1920" height="200" fill="#00B2A0"/>
<path d="M941.412 97.512H946.02L948.936 105.972L951.888 97.512H956.46L952.068 109.14L955.308 117.276L962.544 97.44H967.944L957.72 123H953.436L948.936 112.272L944.472 123H940.188L930 97.44H935.328L942.6 117.276L945.768 109.14L941.412 97.512Z" fill="white"/>
<path d="M963.412 76.512H968.02L970.936 84.972L973.888 76.512H978.46L974.068 88.14L977.308 96.276L984.544 76.44H989.944L979.72 102H975.436L970.936 91.272L966.472 102H962.188L952 76.44H957.328L964.6 96.276L967.768 88.14L963.412 76.512Z" fill="white"/>
</svg>
